# xmcd CD database file
#
# Track frame offsets:
#	150
#	21842
#	41935
#	63244
#	79919
#	100030
#	123083
#	156138
#	189407
#	223831
#
# Disc length: 3389 seconds
#
# Revision: 0
# Processed by: cddbd v1.5.2PL0 Copyright (c) Steve Scherf et al.
# Submitted via: CDex 1.70beta2
#
DISCID=820d3b0a
DTITLE=Tony Joe White - Live At The Basement
DYEAR=2008
DGENRE=Blues
TTITLE0=Undercover Agent Of The Blues [Live]
TTITLE1=High Sheriff Of Calhoun [Live]
TTITLE2=The Organic Shuffle [Live]
TTITLE3=Crack The Window [Live]
TTITLE4=Steamy Windows [Live]
TTITLE5=Rainy Night In Georgia [Live]
TTITLE6=Polk Salad Annie [Live]
TTITLE7=Even Trolls Love Rock 'n' Roll [Live]
TTITLE8=Feeling Snakey - Credits [Live]
TTITLE9=Interview [Live]
EXTD=YEAR: 2008
EXTT0=
EXTT1=
EXTT2=
EXTT3=
EXTT4=
EXTT5=
EXTT6=
EXTT7=
EXTT8=
EXTT9=
PLAYORDER=
